<?xml version="1.0" encoding="UTF-8" standalone="no"?>
<!-- Generator: Adobe Illustrator 16.0.0, SVG Export Plug-In . SVG Version: 6.00 Build 0)  -->

<svg
   xmlns:dc="http://purl.org/dc/elements/1.1/"
   xmlns:cc="http://creativecommons.org/ns#"
   xmlns:rdf="http://www.w3.org/1999/02/22-rdf-syntax-ns#"
   xmlns:svg="http://www.w3.org/2000/svg"
   xmlns="http://www.w3.org/2000/svg"
   xmlns:sodipodi="http://sodipodi.sourceforge.net/DTD/sodipodi-0.dtd"
   xmlns:inkscape="http://www.inkscape.org/namespaces/inkscape"
   version="1.1"
   id="Layer_1"
   x="0px"
   y="0px"
   width="100"
   height="100"
   viewBox="0 0 100 100"
   enable-background="new 0 0 24 24"
   xml:space="preserve"
   inkscape:version="0.48.3.1 r9886"
   sodipodi:docname="check.svg"><metadata
   id="metadata13"><rdf:RDF><cc:Work
       rdf:about=""><dc:format>image/svg+xml</dc:format><dc:type
         rdf:resource="http://purl.org/dc/dcmitype/StillImage" /></cc:Work></rdf:RDF></metadata><defs
   id="defs11" /><sodipodi:namedview
   pagecolor="#ffffff"
   bordercolor="#666666"
   borderopacity="1"
   objecttolerance="10"
   gridtolerance="10"
   guidetolerance="10"
   inkscape:pageopacity="0"
   inkscape:pageshadow="2"
   inkscape:window-width="1366"
   inkscape:window-height="681"
   id="namedview9"
   showgrid="false"
   inkscape:zoom="3.4766083"
   inkscape:cx="54.328857"
   inkscape:cy="45.674532"
   inkscape:window-x="0"
   inkscape:window-y="27"
   inkscape:window-maximized="1"
   inkscape:current-layer="Layer_1" />
<g
   id="g3"
   transform="scale(4.1666667,4.1666667)"
   style="fill:#333333">
	<g
   id="g5"
   style="fill:#333333">
		<path
   d="M 12,0 C 5.373,0 0,5.373 0,12 0,18.628 5.373,24 12,24 18.627,24 24,18.628 24,12 24,5.373 18.627,0 12,0 z m 7.754,9.561 -8.607,8.607 c -0.176,0.177 -0.462,0.177 -0.637,0 L 9.238,16.883 C 9.063,16.707 8.776,16.419 8.602,16.241 l -2.96,-3.112 c -0.087,-0.087 -0.133,-0.21 -0.133,-0.327 0,-0.115 0.046,-0.227 0.133,-0.314 l 1.297,-1.169 c 0.088,-0.09 0.205,-0.134 0.321,-0.134 0.114,10e-4 0.228,0.046 0.315,0.134 l 2.936,2.995 c 0.175,0.178 0.461,0.178 0.637,0 l 6.699,-6.681 c 0.176,-0.177 0.461,-0.177 0.636,0 l 1.272,1.285 c 0.175,0.176 0.175,0.466 -10e-4,0.643 z"
   id="path7"
   inkscape:connector-curvature="0"
   style="fill:#333333" />
	</g>
</g>
</svg>