<?xml version="1.0" encoding="UTF-8" standalone="no"?>
<!-- Generator: Adobe Illustrator 14.0.0, SVG Export Plug-In . SVG Version: 6.00 Build 43363)  -->

<svg
   xmlns:dc="http://purl.org/dc/elements/1.1/"
   xmlns:cc="http://creativecommons.org/ns#"
   xmlns:rdf="http://www.w3.org/1999/02/22-rdf-syntax-ns#"
   xmlns:svg="http://www.w3.org/2000/svg"
   xmlns="http://www.w3.org/2000/svg"
   xmlns:sodipodi="http://sodipodi.sourceforge.net/DTD/sodipodi-0.dtd"
   xmlns:inkscape="http://www.inkscape.org/namespaces/inkscape"
   version="1.1"
   id="Layer_1"
   x="0px"
   y="0px"
   width="100"
   height="100"
   viewBox="0 0 100 100"
   xml:space="preserve"
   inkscape:version="0.48.3.1 r9886"
   sodipodi:docname="home.svg"><metadata
   id="metadata9"><rdf:RDF><cc:Work
       rdf:about=""><dc:format>image/svg+xml</dc:format><dc:type
         rdf:resource="http://purl.org/dc/dcmitype/StillImage" /></cc:Work></rdf:RDF></metadata><defs
   id="defs7" /><sodipodi:namedview
   pagecolor="#ffffff"
   bordercolor="#666666"
   borderopacity="1"
   objecttolerance="10"
   gridtolerance="10"
   guidetolerance="10"
   inkscape:pageopacity="0"
   inkscape:pageshadow="2"
   inkscape:window-width="1366"
   inkscape:window-height="681"
   id="namedview5"
   showgrid="false"
   inkscape:zoom="2.6074563"
   inkscape:cx="-72.186167"
   inkscape:cy="27.770483"
   inkscape:window-x="0"
   inkscape:window-y="27"
   inkscape:window-maximized="1"
   inkscape:current-layer="Layer_1" />
<path
   d="M 96.562503,43.75 87.500004,34.69375 V 12.5 c 0,-3.4375 -2.812501,-6.25 -6.250001,-6.25 h -6.25 c -3.437501,0 -6.25,2.8125 -6.25,6.25 v 3.45625 L 56.250002,3.46875 C 54.543752,1.85625 52.981251,0 50.000002,0 c -2.98125,0 -4.543751,1.85625 -6.25,3.46875 L 3.4375001,43.75 C 1.4875001,45.78125 0,47.2625 0,50 c 0,3.51875 2.7000001,6.25 6.2500003,6.25 h 6.2500007 v 37.5 c 0,3.4375 2.812499,6.25 6.25,6.25 H 37.500002 V 68.75 c 0,-3.4375 2.812499,-6.25 6.25,-6.25 h 12.5 c 3.4375,0 6.250001,2.8125 6.250001,6.25 V 100 h 18.75 c 3.4375,0 6.250001,-2.8125 6.250001,-6.25 v -37.5 h 6.25 C 97.300003,56.25 100,53.51875 100,50 c 0,-2.7375 -1.487499,-4.21875 -3.437497,-6.25 z"
   id="path3"
   inkscape:connector-curvature="0" />
</svg>