<?xml version="1.0" encoding="UTF-8" standalone="no"?>
<!-- Generator: Adobe Illustrator 16.0.0, SVG Export Plug-In . SVG Version: 6.00 Build 0)  -->

<svg
   xmlns:dc="http://purl.org/dc/elements/1.1/"
   xmlns:cc="http://creativecommons.org/ns#"
   xmlns:rdf="http://www.w3.org/1999/02/22-rdf-syntax-ns#"
   xmlns:svg="http://www.w3.org/2000/svg"
   xmlns="http://www.w3.org/2000/svg"
   xmlns:sodipodi="http://sodipodi.sourceforge.net/DTD/sodipodi-0.dtd"
   xmlns:inkscape="http://www.inkscape.org/namespaces/inkscape"
   version="1.1"
   id="Layer_1"
   x="0px"
   y="0px"
   width="100"
   height="100"
   viewBox="0 0 100 100"
   enable-background="new 0 0 24 24"
   xml:space="preserve"
   inkscape:version="0.48.3.1 r9886"
   sodipodi:docname="plus.svg"><metadata
   id="metadata9"><rdf:RDF><cc:Work
       rdf:about=""><dc:format>image/svg+xml</dc:format><dc:type
         rdf:resource="http://purl.org/dc/dcmitype/StillImage" /></cc:Work></rdf:RDF></metadata><defs
   id="defs7" /><sodipodi:namedview
   pagecolor="#ffffff"
   bordercolor="#666666"
   borderopacity="1"
   objecttolerance="10"
   gridtolerance="10"
   guidetolerance="10"
   inkscape:pageopacity="0"
   inkscape:pageshadow="2"
   inkscape:window-width="1920"
   inkscape:window-height="993"
   id="namedview5"
   showgrid="false"
   inkscape:zoom="3.4766083"
   inkscape:cx="73.031653"
   inkscape:cy="35.612811"
   inkscape:window-x="0"
   inkscape:window-y="27"
   inkscape:window-maximized="1"
   inkscape:current-layer="Layer_1" />
<path
   clip-rule="evenodd"
   d="M 97.826087,60.869565 H 60.869565 v 36.956522 c 0,1.2 -0.973913,2.173913 -2.173913,2.173913 H 41.304348 c -1.2,0 -2.173913,-0.973913 -2.173913,-2.173913 V 60.869565 H 2.173913 C 0.97391304,60.869565 0,59.895652 0,58.695652 V 41.304348 c 0,-1.2 0.97391304,-2.173913 2.173913,-2.173913 H 39.130435 V 2.173913 C 39.130435,0.97391304 40.104348,0 41.304348,0 h 17.391304 c 1.2,0 2.173913,0.97391304 2.173913,2.173913 v 36.956522 h 36.956522 c 1.2,0 2.173913,0.973913 2.173913,2.173913 v 17.391304 c 0,1.2 -0.973913,2.173913 -2.173913,2.173913 z"
   id="path3"
   inkscape:connector-curvature="0"
   style="fill-rule:evenodd" />
</svg>